<svg xmlns="http://www.w3.org/2000/svg" viewBox="0 0 64 64" width="64" height="64">
  <defs>
    <linearGradient id="grad1" x1="0%" y1="0%" x2="100%" y2="100%">
      <stop offset="0%" style="stop-color:#4F46E5;stop-opacity:1" />
      <stop offset="100%" style="stop-color:#7C3AED;stop-opacity:1" />
    </linearGradient>
  </defs>
  
  <!-- .DAJ) /'&1J) -->
  <circle cx="32" cy="32" r="30" fill="url(#grad1)"/>
  
  <!-- 9B/) E1C2J) -->
  <circle cx="32" cy="32" r="6" fill="#FFFFFF" opacity="0.95"/>
  <circle cx="32" cy="32" r="3" fill="#4F46E5"/>
  
  <!-- 9B/) 9DHJ) -->
  <circle cx="32" cy="12" r="4" fill="#FFFFFF" opacity="0.9"/>
  <circle cx="32" cy="12" r="2" fill="#4F46E5"/>
  <line x1="32" y1="16" x2="32" y2="26" stroke="#FFFFFF" stroke-width="2" opacity="0.8"/>
  
  <!-- 9B/) 3ADJ) -->
  <circle cx="32" cy="52" r="4" fill="#FFFFFF" opacity="0.9"/>
  <circle cx="32" cy="52" r="2" fill="#4F46E5"/>
  <line x1="32" y1="48" x2="32" y2="38" stroke="#FFFFFF" stroke-width="2" opacity="0.8"/>
  
  <!-- 9B/) J3'1J) -->
  <circle cx="12" cy="32" r="4" fill="#FFFFFF" opacity="0.9"/>
  <circle cx="12" cy="32" r="2" fill="#4F46E5"/>
  <line x1="16" y1="32" x2="26" y2="32" stroke="#FFFFFF" stroke-width="2" opacity="0.8"/>
  
  <!-- 9B/) JEJFJ) -->
  <circle cx="52" cy="32" r="4" fill="#FFFFFF" opacity="0.9"/>
  <circle cx="52" cy="32" r="2" fill="#4F46E5"/>
  <line x1="48" y1="32" x2="38" y2="32" stroke="#FFFFFF" stroke-width="2" opacity="0.8"/>
  
  <!-- 9B/) 9DHJ) J3'1J) -->
  <circle cx="20" cy="20" r="3" fill="#FFFFFF" opacity="0.85"/>
  <circle cx="20" cy="20" r="1.5" fill="#4F46E5"/>
  <line x1="23" y1="23" x2="28" y2="28" stroke="#FFFFFF" stroke-width="1.5" opacity="0.7"/>
  
  <!-- 9B/) 9DHJ) JEJFJ) -->
  <circle cx="44" cy="20" r="3" fill="#FFFFFF" opacity="0.85"/>
  <circle cx="44" cy="20" r="1.5" fill="#4F46E5"/>
  <line x1="41" y1="23" x2="36" y2="28" stroke="#FFFFFF" stroke-width="1.5" opacity="0.7"/>
  
  <!-- 9B/) 3ADJ) J3'1J) -->
  <circle cx="20" cy="44" r="3" fill="#FFFFFF" opacity="0.85"/>
  <circle cx="20" cy="44" r="1.5" fill="#4F46E5"/>
  <line x1="23" y1="41" x2="28" y2="36" stroke="#FFFFFF" stroke-width="1.5" opacity="0.7"/>
  
  <!-- 9B/) 3ADJ) JEJFJ) -->
  <circle cx="44" cy="44" r="3" fill="#FFFFFF" opacity="0.85"/>
  <circle cx="44" cy="44" r="1.5" fill="#4F46E5"/>
  <line x1="41" y1="41" x2="36" y2="36" stroke="#FFFFFF" stroke-width="1.5" opacity="0.7"/>
</svg>
